<?xml version="1.0" encoding="UTF-8" standalone="no"?>
<svg xmlns:rdf="http://www.w3.org/1999/02/22-rdf-syntax-ns#" xmlns="http://www.w3.org/2000/svg" height="237.19" viewBox="0 0 1462.5 237.1875" width="1462.5" version="1.1" xmlns:cc="http://creativecommons.org/ns#" xmlns:dc="http://purl.org/dc/elements/1.1/">
<path d="m374.99 235.12c-87.353-0.34293-79.913 1.4837-80.946-19.873-0.40355-8.3445-1.0218-12.766-1.9922-14.247-0.86183-1.3153-1.8117-6.6172-2.4511-13.682-1.8775-20.742-4.2323-22.709-32.728-27.336-25.414-4.1267-53.184-0.81472-81.267 9.6923-2.7505 1.0291-9.7431 2.7233-15.539 3.7648s-11.804 2.2708-13.351 2.7319c-1.5469 0.46099-6.8203 1.3316-11.719 1.9346-8.272 1.0183-19.632 2.5653-34.868 4.7482-15.507 2.2216-33.091 0.66875-41.951-3.7047-1.8356-0.90613-5.8038-2.1788-8.8181-2.828-6.7791-1.4602-17.634-7.1772-26.709-14.066-3.7822-2.8714-8.3077-6.1699-10.056-7.3301-13.882-9.22-15.667-45.46-3.4327-70.076 11.861-23.86 22.995-32.221 48.041-36.079 7.5232-1.1588 43.419-1.1232 48.569 0.04816 20.679 4.703 26.119 5.9998 33.716 8.0374 4.7803 1.2822 10.687 2.676 13.125 3.0973 2.4384 0.42135 9.9179 1.8463 16.621 3.1666 15.742 3.1007 39.437 6.358 41.234 5.6684 0.76952-0.29529 2.7755-0.03361 4.4577 0.58152 7.8778 2.8806 44.198 2.3866 57.069-0.7761 3.0776-0.75628 8.093-3.8897 14.653-9.1546 2.6104-2.095 5.7146-23.994 5.8333-41.152 0.12-16.988-0.83-16.534 34.38-16.316 48.55 0.2999 455.02-0.163 523.94-0.5971 35.58-0.2241 96.54-0.3532 135.47-0.2869 38.93 0.066291 85.758-0.030844 104.06-0.21586 38.023-0.38431 58.181-0.20247 62.585 0.56459 5.8818 1.0244 6.7585 4.8606 8.7178 38.15 1.2796 21.742 1.1971 21.515 8.3966 23.12 2.3137 0.51596 7.1598 1.5878 10.769 2.382 9.702 2.1346 28.298 2.81 43.213 1.5695 37.27-3.0998 40.779-3.4961 62.725-7.084 4.6406-0.75868 13.289-1.8397 19.219-2.4023 41.086-3.898 49.004-3.8541 83.438 0.46218 19.452 2.4384 22.377 3.1994 34.205 8.8992 53.144 25.61 49.263 94.737-5.9537 106.03-2.9055 0.59418-7.1812 1.6356-9.5015 2.3143-19.217 5.621-68.717 6.9061-89.062 2.3122-2.3203-0.52391-9.2812-1.5837-15.469-2.3551-11.805-1.4718-20.948-2.9287-34.219-5.4529-9.6358-1.8328-19.809-3.2048-32.344-4.362-5.1563-0.47603-15.492-1.5081-22.969-2.2936-16.156-1.6973-26.039-1.8354-32.919-0.45989-2.7774 0.55528-7.3292 1.1589-10.115 1.3414-9.0572 0.59319-10.638 8.3323-10.814 52.962-0.065 16.193-0.127 16.415-5.0134 17.773-2.3633 0.65636-116.32 0.96866-354.75 0.97221-136.99 2.856-302.91 0.32944-425.45-0.18936zm755.16-11.861c4.125 0.0919 9.3984 0.2052 11.719 0.25193l4.2188 0.0849 0.2783-6.9404c0.3361-8.3806-0.3111-9.2818-5.4487-7.5862-3.2852 1.0842-5.029 1.0428-12.45-0.29587-9.9729-1.799-41.559-1.6659-78.932 0.33267-14.055 0.75161-26.448 0.88126-35.625 0.37268-26.742-1.482-34.879-1.0402-38.125 2.0697-2.67 2.5584-3.1965 2.6779-12.337 2.8002-13.236 0.17706-47.808 2.015-71.892 3.822-34.469 2.5861-139.69 2.8001-139.69 0.28417 0-2.1675 4.9108-3.1655 17.344-3.5247 16.172-0.4673 11.335-0.43516 46.983-0.31213 27.424 0.0947 71.467-1.2047 77.236-2.2786 3.7615-0.70024 36.793-2.271 51.094-2.4296 15.215-0.16877 16.406-0.3669 16.406-2.7279 0-0.96608 0.42188-2.0172 0.9375-2.3359 3.2351-1.9994 0.33731-2.5924-9.6094-1.9664-28.372 1.7857-43.377 2.353-64.453 2.4368-12.633 0.0503-31.195 0.46537-41.25 0.92257-51.009 2.3195-100.19 3.139-108.04 1.8005-4.3603-0.7429-14.074-1.3183-22.254-1.3183h-14.517l-1.2665-2.6382c-2.2495-4.686-11.196-4.2505-10.691 0.52042 0.27474 2.5962-2.5791 5.3991-5.4972 5.3991-0.84699 0-2.652 0.87472-4.0112 1.9438-3.3517 2.6365-15.861 4.1881-48.407 6.0043-31.207 1.7415-39.264 1.6475-37.972-0.44282 1.7659-2.8574 28.203-5.5461 60.849-6.1886 20.538-0.40424 22.123-0.73793 22.123-4.6574 0-3.3549-1.1061-3.4494-11.006-0.93985-11.176 2.8328-39.462 4.6257-78.525 4.9769-13.922 0.1252-27 0.30891-29.062 0.40825-2.0625 0.0993-7.5469-0.54735-12.188-1.4371-7.405-1.4198-9.929-1.4831-20.625-0.51776-13.084 1.1809-17.736 2.9107-10.807 4.0186 6.1797 0.98818 3.4858 2.6058-4.0542 2.4345-3.6857-0.0837-8.5998 0.28641-10.92 0.82261-12.384 2.8618-23.02 3.2631-80.828 3.0496-19.212-0.071-35.196 0.27122-37.5 0.80275-11.625 2.6817-21.451-0.11523-10.813-3.0779 11.53-3.211 19.969-3.4623 73.828-2.1982 27.739 0.65105 34.814 0.315 32.785-1.5573-0.24288-0.22415-10.766-0.67384-23.385-0.9993s-30.127-1.0501-38.906-1.6103c-12.011-0.76635-19.444-0.73769-30.025 0.11577-8.7535 0.70605-26.335 1.0062-46.57 0.79495l-32.507-0.33932-0.30523 5.4407c-0.16788 2.9924 0.11664 5.8781 0.63227 6.4128 0.64608 0.66991 127.71 0.79461 408.75 0.40114 224.3-0.31403 411.19-0.49583 415.31-0.40399zm-384.42-3.961c-1.0216-1.653 1.0318-3.0634 2.921-2.0062 1.5293 0.85584 1.5064 0.99644-0.32151 1.9747-1.4146 0.75709-2.1456 0.76595-2.5995 0.0315zm-266.68-17.44c2.5145-1.4853 2.8597-1.4822 5.7696 0.0521 2.7799 1.4657 4.5752 1.5433 17.626 0.76157 7.9922-0.47871 28.664-0.9457 45.938-1.0377 17.558-0.0936 31.537-0.53879 31.703-1.0097 0.17297-0.49087 1.2741-0.47083 2.6388 0.048 1.611 0.61248 4.4444 0.45177 9.0782-0.51494 3.7049-0.77294 9.5564-1.4057 13.003-1.4061 3.4469-0.00042 7.4547-0.47991 8.9062-1.0655 1.4515-0.58562 6.7388-1.178 11.749-1.3164 5.0106-0.13841 12.182-0.72812 15.938-1.3105 3.755-0.58235 9.3585-1.4562 12.452-1.9419 19.906-3.125 24.725-3.7474 36.094-4.6611 24.869-1.9987 35.131-2.9937 35.922-3.4829 4.0886-2.5269-12.576-3.1967-30.297-1.2178-4.3828 0.48939-14.508 1.3568-22.5 1.9275-7.9922 0.57073-18.117 1.6708-22.5 2.4446-4.3828 0.77382-10.078 1.7478-12.656 2.1643-2.5781 0.41654-7.0078 1.2189-9.8438 1.783-24.006 4.7749-118.07 7.8506-152.14 4.9747-6.5775-0.55523-13.743-0.57654-18.581-0.0553-12.834 1.3828-44.996 1.1366-58.968-0.4514-19.819-2.2526-90.116-3.1922-91.748-1.2264-2.5125 3.0274-0.22455 3.3155 26.845 3.3805 39.689 0.0953 67.324 0.85836 74.747 2.0638 4.0894 0.66413 12.392 0.87127 22.031 0.54968 11.392-0.38004 16.457-0.19352 19.219 0.70764 5.9003 1.9254 26.229 1.8157 29.573-0.15958zm264.74-3.9493c1.2746-0.49913 1.4766-0.91768 0.68025-1.4098-1.4959-0.9245-6.8798 0.2836-6.1959 1.3903 0.62481 1.011 2.9627 1.0193 5.5156 0.0195zm399.2-0.72658c1.4188-0.84225 0.6499-3.9473-1.1161-4.5078-9.4267-2.9919-105.39-2.8137-111.15 0.20643-5.3285 2.7949-2.789 3.4256 9.0772 2.2544 11.232-1.1086 67.754 0.0817 78.11 1.645 3.6093 0.54484 8.039 1.1576 9.8437 1.3617 3.5123 0.39716 14.069-0.26788 15.234-0.95972zm-391.33-0.3c0.94533 0 1.1814-0.32614 0.62644-0.86538-1.1424-1.11-6.2062-0.15094-5.4724 1.0365 0.30396 0.49182 1.1773 0.65452 1.9408 0.36155 0.76345-0.29296 2.0708-0.53266 2.9052-0.53266zm24.66-2.4484c7.2376-0.54137 10.314-1.5348 8.952-2.8912-1.3746-1.3694-14.039-0.24156-23.095 2.0568l-8.9062 2.2604 7.9688-0.44699c4.3828-0.24584 11.169-0.68638 15.081-0.97895zm39.763-2.6767c7.2188-0.2606 16.711-1.1259 21.094-1.9229 10.211-1.8568 21.461-3.7508 33.281-5.6028 5.1562-0.80789 11.695-1.9026 14.531-2.4326 2.8359-0.53002 8.5312-1.5649 12.656-2.2997 16.191-2.8841 37.878-7.7476 56.195-12.602 6.0424-1.6014 12.745-3.2679 14.895-3.7032 2.1501-0.43532 6.6483-1.5216 9.9959-2.4138 3.3477-0.89228 9.254-1.938 13.125-2.3237 3.8711-0.38576 10.202-1.5938 14.07-2.6845 3.8672-1.0907 8.9297-2.4821 11.25-3.0918 5.2544-1.3808 21.186-7.1246 24.492-8.8298 1.3535-0.69818 5.5722-2.1349 9.375-3.1926 6.5061-1.8097 8.8088-2.296 22.852-4.826 3.0938-0.55737 10.055-1.3648 15.469-1.7944 5.4141-0.42954 12.854-1.4113 16.534-2.1817 3.6793-0.77038 9.691-1.6964 13.359-2.0579 7.3052-0.71983 8.1574-1.4463 3.8095-3.2472-5.1154-2.1189-3.4385-4.8326 3.7977-6.1459 5.8906-1.0691 16.223-3.1628 18.411-3.7305 1.5218-0.39497 2.3928-29.691 2.0381-68.545l-0.2925-32.034-2.3437-2.5265-2.3438-2.5265-135 0.45971c-218.01 0.74238-651.76 1.8362-673.12 1.6974-10.828-0.0703-21.797 0.20696-24.375 0.61614l-4.6875 0.74397-0.69865 5.6149c-1.0743 8.634-0.82743 53.214 0.30096 54.342 0.60553 0.60565 13.14 1.0817 33.96 1.2898 57.406 0.57365 65.156 1.0679 55.401 3.5337-3.6095 0.91242-80.371 1.0203-85.385 0.12-4.9771-0.89371-4.8378-1.3769-5.1332 17.81-0.2763 17.949-0.61726 17.318 8.7946 16.263 3.955-0.44353 11.538-0.46107 16.85-0.039 5.3126 0.4221 15.566 1.2332 22.784 1.8024 14.78 1.1655 16.406 1.4939 16.406 3.3136 0 2.3443-1.5926 2.4166-32.004 1.4521-34.017-1.0788-32.933-1.2618-32.495 5.4892l0.27953 4.3009 10.515 0.46875c17.85 0.79575 18.82 5.3257 1.4615 6.8276-13.404 1.1598-12.593 0.72842-12.26 6.5213 0.39605 6.885-0.0425 6.8688 32.159 1.1911 11.379-2.0062 26.816-2.5497 39.844-1.4026 6.4453 0.56753 16.359 1.4358 22.031 1.9296 13.851 1.2057 30.114 3.7109 32.114 4.9469 4.3084 2.6628 0.60663 6.1896-6.6433 6.3295-2.6649 0.0514-5.8999 0.39248-7.189 0.75794-1.2891 0.36547-5.7188 0.16122-9.8438-0.45388s-17.836-1.616-30.469-2.2242c-12.633-0.60819-26.225-1.4872-30.206-1.9534-6.124-0.71727-9.2956-0.48527-20.625 1.5087-26.724 4.7033-21.314 6.9047 7.833 3.1874 13.22-1.686 18.092 0.69286 12.849 6.2739l-2.024 2.1545 9.2896-0.53791c5.1093-0.29584 10.608-0.93705 12.219-1.4249 2.2919-0.69394 31.974-2.8641 38.789-2.836 1.461 0.006 14.737 0.98317 45.938 3.381 10.055 0.77275 24.82 1.8594 32.812 2.4147 7.9922 0.55532 21.914 1.8105 30.938 2.7892 20.943 2.2717 52.452 4.0789 76.406 4.3823 10.312 0.13062 20.227 0.30245 22.031 0.38183 10.089 0.44375 23.897-0.74522 23.612-2.0332-1.0372-4.6944-12.815-6.3533-49.537-6.977-23.434-0.39803-33.939-7.4751-12.321-8.3011 6.2106-0.23731 8.7875-0.76524 11.293-2.3135 2.9989-1.8534 3.6661-1.9204 8.7713-0.88113 3.8299 0.7797 19.469 1.1372 50.965 1.165l45.439 0.0401 1.0929-2.1883c1.8339-3.6719 2.0289-3.705 25.216-4.2706 31.81-0.77597 56.9-2.3124 65.512-4.0118 4.5276-0.89342 9.1492-1.2238 11.94-0.85348 3.304 0.4383 5.3508 0.19204 7.4572-0.89723 2.2944-1.1865 3.506-1.2912 5.7775-0.49936 4.0675 1.4179 9.7232 1.2421 12.901-0.40111 2.0317-1.0506 3.3372-1.1658 5.1971-0.45871 1.3661 0.51941 5.925 0.83438 10.131 0.69995l7.6469-0.24444 0.89648 3.0451c1.2366 4.2004 2.7441 4.3988 13.318 1.7521 7.8472-1.9641 25.305-4.9641 39.223-6.7402 2.0625-0.2632 7.5469-1.0806 12.188-1.8165 33.279-5.277 48.03-6.0643 51.162-2.7305 1.8488 1.968 2.7921 2.2969 5.0853 1.7731 3.3387-0.7626 10.911-1.2615 26.253-1.7298 6.1875-0.18883 18.211-1.3958 26.719-2.6822 17.124-2.5892 31.127-2.5042 32.798 0.19905 1.4094 2.2806-0.6551 3.561-6.8247 4.2326-3.1994 0.34828-8.3927 1.6422-11.541 2.8753-3.1482 1.2331-11.375 3.6949-18.281 5.4707-6.9065 1.7758-13.823 3.7239-15.37 4.3291-1.5469 0.60524-5.5547 1.4937-8.9062 1.9743-3.3516 0.48061-9.6797 1.9666-14.062 3.3023-16.566 5.0484-30.078 7.8284-38.085 7.8358-4.6782 0.005-10.912 2.0956-15.352 5.1503-3.3897 2.332-17.323 6.0178-31.851 8.4255-14.196 2.3527-24.718 4.2433-31.43 5.6472-3.6094 0.75491-10.992 1.8293-16.406 2.3875-5.4141 0.55819-11.65 1.4142-13.859 1.9023-2.2081 0.48804-8.5363 1.1122-14.062 1.3869-5.5262 0.27475-12.368 0.88673-15.204 1.36-2.8359 0.47323-6.75 1.1086-8.6979 1.412-6.1745 0.9617-2.7763 2.2848 4.7491 1.8491 3.9766-0.23023 13.136-0.63181 20.355-0.8924zm-287.55-26.83c-2.9513-0.43252-6.5925-1.4206-8.0914-2.1958-4.4039-2.2774-22.71-3.9716-27.904-2.5824-3.5699 0.9548-4.7595 0.91768-7.0394-0.21969-1.9271-0.96135-7.8277-1.5588-19.828-2.0074-17.896-0.6691-22.562-1.6865-23.664-5.1597-1.5476-4.8759 2.8508-7.0536 12.52-6.199 12.851 1.1358 74.98-2.6381 113.12-6.8715 4.125-0.45783 11.719-1.2678 16.875-1.7999 8.99-0.92778 15.281-1.6843 32.041-3.8527 6.3427-0.82064 8.2482-0.74848 11.04 0.41811 4.2553 1.778 14.208 1.0106 19.075-1.4707 1.8682-0.95243 4.1171-1.7317 4.9977-1.7317 0.88058 0 6.8031-1.0241 13.161-2.2757 19.654-3.869 36.404-4.1326 36.404-0.57281 0 1.1072-9.2396 2.7467-18.75 3.3272-4.8984 0.29896-10.383 0.92322-12.188 1.3873-1.8047 0.46405-7.2891 1.566-12.188 2.4488-5.8192 1.0487-10.122 2.4086-12.414 3.9233-3.0364 2.0069-4.1513 2.2328-8.3011 1.6823-8.1914-1.0866-27.133 0.97245-47.398 5.1524-4.7196 0.97351-18.22 2.4428-30 3.2652-30.153 2.1048-31.304 2.2412-31.894 3.78-1.2544 3.269 1.4231 4.1321 12.819 4.1321 8.5399 0 11.277 0.30943 12.161 1.3747 4.1644 5.0178-9.1738 8.3024-24.559 6.0477zm151.23-18.624c-1.5606-0.96452 4.8785-3.2544 7.3407-2.6105 0.91874 0.24026 2.6838-0.12476 3.9224-0.81114s3.068-1.2629 4.0654-1.2812c0.99736-0.0183 3.5286-0.84064 5.625-1.8275 4.3485-2.047 21.676-3.4578 53.968-4.3941 10.57-0.30649 19.598-0.79077 20.062-1.0762 0.46358-0.28539 7.4245-0.61803 15.469-0.73919 8.0442-0.12115 16.959-0.51632 19.811-0.87814 4.3684-0.55424 5.5409-0.36977 7.4438 1.1711l2.2587 1.829-1.9698 1.0542c-1.0834 0.57983-8.1312 1.2496-15.662 1.4884-7.5305 0.23877-14.02 0.63689-14.421 0.88471-0.40099 0.24782-6.828 0.72239-14.282 1.0546-7.4542 0.3322-23.256 1.1514-35.116 1.8205-11.859 0.66905-22.874 1.0199-24.476 0.77975-1.8513-0.27746-4.3304 0.28594-6.7985 1.545-4.151 2.1177-24.615 3.6131-27.24 1.9906zm143.12-10.052c-2.4914-0.67804-2.0113-1.6082 2.28-4.4179 5.5222-3.6155 10.291-4.3094 36.861-5.3629 12.891-0.51113 25.382-1.1581 27.758-1.4376 4.8091-0.56577 6.3841 0.98641 4.5252 4.4597-1.8649 3.4846-7.1997 4.3583-30.877 5.0568-21.048 0.62101-34.106 1.2376-36.722 1.7339-1.2014 0.22796-2.9227 0.21354-3.8251-0.0321zm-369.61-4.9856c-1.5469-0.41659-11.039-1.0008-21.094-1.2983-29.506-0.87291-52.5-4.2263-52.5-7.6564 0-2.6752 25.322-2.9737 36.094-0.42559 2.0625 0.48789 7.1608 0.89713 11.33 0.90943 5.0628 0.0149 9.5259 0.66131 13.441 1.9466 3.5831 1.1763 7.7431 1.831 10.702 1.6842 6.8759-0.34112 12.304 3.383 7.5759 5.1975-1.7113 0.65668-1.8049 0.65065-5.5483-0.35748zm33.75-1.6919c-5.2498-0.51272-5.8616-1.0779-3.3681-3.1115 1.796-1.4648 3.0739-1.7182 6.2578-1.2407 2.2005 0.32999 5.4037 0.14458 7.1182-0.41202 2.9509-0.958 9.3587-1.846 28.195-3.9072 4.5117-0.4937 12.105-1.3268 16.875-1.8512 4.7695-0.52447 14.367-1.3574 21.328-1.851 6.9609-0.49355 16.875-1.3056 22.031-1.8045 5.1562-0.49894 10.219-0.70205 11.25-0.45138 1.0312 0.25068 7.2469-0.40661 13.813-1.4606 6.5657-1.054 13.738-1.9189 15.938-1.922 2.1999-0.003 8.2186-0.69315 13.375-1.5336 5.1562-0.84044 11.906-1.6158 15-1.723 5.5623-0.19274 17.435-2.7279 20.156-4.3039 1.9433-1.1255-8.3332-1.0985-15.469 0.0407-7.6981 1.229-46.267 2.6677-73.125 2.7278-27.38 0.0612-64.554-1.678-76.787-3.5927-3.1424-0.49184-12.042-1.5659-19.776-2.3869-7.7344-0.82092-17.138-1.896-20.898-2.389-3.76-0.494-13.34-0.897-21.28-0.897-14.556 0-16.73-0.49708-14.021-3.2057 1.7455-1.7455 2.3742-1.7855 32.754-2.0834 29.96-0.29382 23.641 0.07817 89.531-5.2706 107.02-8.6876 101.37-8.4642 98.013-3.8753-1.1137 1.5221-2.5636 1.7833-10.048 1.8101-5.08 0.01823-9.6083 0.51128-10.802 1.1762-1.5709 0.87478-2.6145 0.89026-4.4244 0.06562-1.8674-0.85085-3.416-0.76494-7.3192 0.40607-4.2894 1.2869-18.473 2.3854-51.357 3.9773-2.3203 0.11233-6.4018 0.66156-9.0699 1.2205-2.6681 0.55895-13.791 1.2556-24.719 1.5481-10.927 0.29252-20.634 0.94229-21.572 1.4439-0.93733 0.50163-2.5757 0.91207-3.6409 0.91207-1.7387 0-2.932 1.8387-1.2335 1.9007 9.4648 0.34547 22.431 0.9666 29.766 1.4259 15.386 0.96344 61.568 2.5133 71.25 2.391 8.9002-0.11235 31.18-1.1797 40.312-1.9311 22.729-1.8704 28.34-2.2086 38.566-2.3247 7.271-0.08259 10.907-0.50531 11.976-1.3924 1.1209-0.93028 3.1791-1.1203 7.6316-0.70449 3.366 0.31432 7.2075 0.14701 8.5767-0.37355 3.0478-1.1588 6.1926-0.33851 4.0053 1.0447-0.75898 0.47999-2.4347 0.87563-3.7237 0.8792-3.3061 0.0094-14.97 2.7832-18.041 4.2908-1.9574 0.96085-3.2638 1.0218-5.4637 0.25491-3.4016-1.1858-7.4325 0.18927-7.4325 2.5355 0 1.7175-4.4889 3.7688-9.8438 4.4982-2.0625 0.28096-5.6484 0.93763-7.9688 1.4593-10.092 2.2688-18.767 3.9189-25.312 4.8148-3.8672 0.5293-10.406 1.5815-14.531 2.3383-4.125 0.75677-10.875 1.6013-15 1.8768-4.125 0.27548-10.453 0.86641-14.062 1.3132-7.5584 0.93561-19.692 2.1412-48.75 4.8436-47.993 4.4634-59.455 5.3145-64.688 4.8034zm235.96-1.8208c-8.5676-0.7667-5.2227-5.2598 4.5099-6.0582 4.3828-0.35952 9.7127-1.1389 11.844-1.732 2.8916-0.80454 4.379-0.80872 5.8594-0.0165 4.4316 2.3717 1.1991 5.722-7.2028 7.4651-4.8858 1.0136-6.9698 1.0611-15.011 0.34149zm202.32-2.4123c-1.9898-0.67957-3.286-1.7397-3.2932-2.6934-0.0206-2.7058-0.8636-2.8437-18.581-3.0387-14.694-0.16178-17.671-0.43763-19.804-1.8349-4.0264-2.6382-1.5834-4.66 4.5812-3.7912 2.6143 0.36842 14.456 0.71398 26.316 0.76792l21.562 0.0981 0.30731 2.1684c0.34297 2.4199 2.9008 2.4429 28.286 0.25475 36.398-3.1374 97.38-3.002 96.308 0.21391-0.7471 2.2414-8.5951 3.1843-35.84 4.3059-44.571 1.8348-64.987 2.8806-74.063 3.7936-11.714 1.1786-21.898 1.082-25.781-0.24432zm-137.25-6.37c-2.7458-1.6834 1.41-3.5788 7.938-3.6204 2.8702-0.0183 7.6721-0.4868 10.671-1.0412 7.0166-1.2971 10.331-0.60706 8.8066 1.8336-0.84723 1.3566-2.7136 1.8525-8.6691 2.3035-4.1742 0.3161-9.6988 0.80921-12.277 1.0958-2.8403 0.31574-5.3897 0.0906-6.4695-0.57141zm283.89-2.8403c-1.8563-3.0035 4.0335-4.5199 9.6572-2.4863 2.5307 0.9151 3.5427 0.89496 5.1395-0.10227 2.1231-1.3258 21.53-4.777 26.999-4.8013 3.1425-0.014 6.5238-1.3188 5.5978-2.1602-0.5572-0.50637-41.258-3.4493-50.342-3.6401-7.3294-0.15392-9.3462-0.80815-8.2013-2.6605 0.5754-0.93111 4.4619-1.0192 18.167-0.41184 9.5891 0.42498 20.177 0.84918 23.529 0.94267 16.631 0.46393 37.197 1.4714 38.53 1.8874 5.3891 1.6821 2.8755 8.8226-3.139 8.9169-2.6307 0.0413-13.24 0.93788-27.744 2.3448-2.2397 0.21726-5.7103 0.83612-7.7123 1.3752-4.8505 1.3061-29.762 1.9563-30.48 0.79549zm-203.82-1.3363c-1.2818-0.70217-3.2857-1.0369-4.4531-0.74395-3.0753 0.77185-6.8101-0.40256-6.8101-2.1414 0-1.1614 0.57882-1.3564 2.5781-0.86822 1.418 0.34621 5.7422 0.92855 9.6094 1.2941 7.2862 0.68874 9.7917 1.5499 8.8662 3.0473-0.78727 1.2738-7.082 0.8959-9.7905-0.5878zm91.547-11.216c-8.1117-1.3629-8.6029-1.5952-7.7992-3.6894 0.62213-1.6213 6.3109-1.8628 14.019-0.59498 5.7082 0.93882 7.4666 2.4964 4.9312 4.3677-2.0811 1.5359-1.4874 1.5403-11.151-0.0833zm-183.48-1.38c-0.77344-0.49984-2.5664-0.91525-3.9844-0.92315-4.4272-0.0246-2.8239-1.4406 2.8125-2.4839 3.5872-0.66398 7.8998-0.70624 12.891-0.12632 10.39 1.2073 11.171 1.7331 4.6875 3.1553-6.6853 1.4663-14.446 1.6452-16.406 0.37809zm-411.39-1.5225c-4.2016-3.4422-2.0352-4.8095 8.5623-5.404 24.459-1.3721 44.187 1.3113 37.186 5.0581-3.9834 2.1318-43.206 2.4284-45.748 0.34596zm464.43-13.256c-0.43288-0.4165-11.709-1.2774-22.575-1.7235-12.277-0.50404-14.531-0.91793-14.531-2.6677 0-4.0882 2.928-4.3255 16.875-1.3676 6.6602 1.4125 37.806 1.339 41.273-0.0974 3.2651-1.3525 4.8476-0.4278 6.033 3.5253 0.48376 1.6132 0.2318 2.1585-1.0713 2.3181-2.4324 0.29798-25.695 0.30948-26.004 0.01286zm251.64-4.9806c-5.9297-0.84798-12.258-1.3576-14.062-1.1325-4.6976 0.58595-7.8874-1.8848-5.1562-3.9941 1.0312-0.79643 2.7326-1.2332 3.7809-0.97071 4.4623 1.1176 18.165 2.2518 21.615 1.7891 4.3045-0.57735 6.5049 1.0999 5.322 4.0565-0.6991 1.747-0.9971 1.7535-11.499 0.25173zm-329.18 0.58388c-0.23381-0.2338-15.495-0.49104-33.915-0.57164-32.913-0.14403-35.847-0.39426-32.936-2.8098 2.8784-2.3889 72.588-1.2927 72.588 1.1414 0 0.49543-0.42188 0.64004-0.9375 0.32137-0.51563-0.31867-0.9375 0.0783-0.9375 0.88217 0 1.3209-2.8211 2.0779-3.8626 1.0365zm-351.88-5.205c0.31867-0.51562 1.6341-0.9375 2.9232-0.9375 1.3238 0 2.0916 0.40799 1.7644 0.9375-0.31867 0.51562-1.6341 0.9375-2.9232 0.9375-1.3238 0-2.0916-0.40799-1.7644-0.9375zm6.5625 0c-0.32861-0.53171 0.45902-0.9375 1.8197-0.9375 1.3195 0 2.3991 0.42188 2.3991 0.9375s-0.81885 0.9375-1.8197 0.9375-2.0804-0.42188-2.3991-0.9375zm95.607-5.6539c-0.7886-1.276 1.0964-2.748 3.5462-2.7693 0.90933-0.0079 2.3859-0.41536 3.2812-0.90548 0.89535-0.49012 5.8466-1.8128 11.003-2.9392 5.1562-1.1264 11.695-2.5623 14.531-3.1907 13.849-3.0691 24.059-1.866 11.016 1.2979-2.707 0.65664-7.3276 1.9945-10.268 2.973-2.9404 0.97854-7.4378 1.9874-9.9944 2.2419-2.5565 0.25448-6.4789 0.87017-8.7164 1.3682-2.2375 0.49802-5.1228 1.1002-6.4119 1.3382-1.2891 0.23796-3.4579 0.71866-4.8196 1.0682-1.5406 0.39548-2.7369 0.21313-3.167-0.48273zm617.83-5.9096c-10.312-0.48472-19.008-1.2817-19.324-1.771-0.3156-0.48933-1.5421-0.74786-2.7253-0.57451-1.2421 0.18196-2.341-0.24244-2.6001-1.0041-0.5806-1.7068 44.303-0.73382 46.399 1.0058 3.9144 3.2486 1.9663 3.4586-21.75 2.3439zm-781.91-8.299c-1.5018-0.3672-3.8906-0.90778-5.3086-1.2013-12.406-2.5681 36.369-5.329 49.857-2.8222 4.9882 0.92707 1.6445 2.2929-5.6546 2.3099-3.4035 0.0079-7.4113 0.41729-8.9062 0.90976-3.3535 1.1048-26.247 1.7184-29.988 0.80383zm166.64-7.9119c-2.4071-1.7601 1.4353-2.8692 13.97-4.032 14.923-1.3845 15.883-1.343 15.883 0.68687 0 2.2252-27.214 5.2747-29.852 3.3452zm258.13-7.0828c-9.7969-0.44915-22.453-0.59471-28.125-0.32346-10.481 0.50126-13.351-0.09448-12.399-2.5744 0.64322-1.6762 5.5809-2.6846 10.055-2.0535 1.8047 0.25454 16.781 0.6123 33.281 0.79502 29.883 0.33092 36.928 1.0554 34.441 3.5421-0.64979 0.64978-4.1118 0.87287-9.5277 0.61394-4.6789-0.2237-8.507-0.06586-8.507 0.35075s-0.31641 0.69194-0.70313 0.61183c-0.38671-0.08011-8.7188-0.51314-18.516-0.96229zm214.22 144.97c1.8047-0.14068 9.3984-0.71873 16.875-1.2845 31.721-2.4006 35.779-3.0465 33.495-5.3306-0.6133-0.6133-22.621 0.84167-37.714 2.4934-12.384 1.3553-15.761 1.4155-16.137 0.28773-1.6798-5.0395-7.3207-5.1623-9.0668-0.1974-1.5575 4.4287-0.23991 5.7917 4.824 4.9903 2.4433-0.38665 5.9189-0.81811 7.7236-0.95878zm-431.75-3.188c0.79606-1.288-10.271-2.7681-35.596-4.7604-6.1875-0.48678-14.414-1.505-18.281-2.2627-16.619-3.2563-36.808-5.7499-38.431-4.7468-0.49968 0.30882-3.3422 0.13778-6.3168-0.38009-18.171-3.1636-31.001-1.943-25.08 2.3862 2.2448 1.6414 15.475 2.0627 24.652 0.78501 4.4045-0.61315 5.1365-0.47063 6.3293 1.2323 1.9462 2.7786 8.49 3.7491 40.237 5.9672 8.2585 0.577 17.969 1.3455 21.578 1.7077 10.183 1.0219 30.292 1.0685 30.908 0.0716zm-121.97-1.6433c0.36215-0.36216-1.7824-1.5225-4.7656-2.5786-4.4274-1.5673-5.4828-2.3507-5.7439-4.2634-0.65755-4.8173-2.04-5.3267-16.386-6.0373-17.76-0.87971-22.145 0.17854-14.952 3.6087 5.1611 2.4612 2.2052 4.3041-6.9033 4.3041-6.0445 0-9.0372 0.99523-7.5287 2.5037 1.9202 1.9202 54.521 4.222 56.28 2.4628zm-103.86-10.66c2.7875-2.3134 1.2358-5.062-3.0335-5.3734-3.7646-0.2745-9.6836 3.8401-9.6986 6.742-0.007 1.2102 11.058 0.0207 12.732-1.3687zm383.36 1.0485c2.0625-0.46598 9.4453-1.3166 16.406-1.8903 6.9609-0.5737 14.133-1.5073 15.938-2.0747 1.8047-0.56741 3.8791-1.1968 4.6099-1.3987 5.1502-1.423-1.7037-2.2308-10.831-1.2765-5.6019 0.5857-19.675 1.2878-31.274 1.5602-11.599 0.27243-21.257 0.66294-21.462 0.86782-1.2343 1.2343 2.5219 3.2935 5.8985 3.2336 2.112-0.0375 6.3712 0.31298 9.4649 0.77886 3.0938 0.46587 6.0469 0.89205 6.5625 0.94705 0.51562 0.055 2.625-0.28126 4.6875-0.74724zm304.69-3.8733c3.0938-0.49645 9.6329-2.3536 14.531-4.1269 4.8984-1.7734 11.735-4.0948 15.192-5.1588 7.6069-2.3411 10.009-4.2734 7.9159-6.3668-1.2431-1.2431-2.2285-1.1153-8.7389 1.1337-4.0358 1.3941-9.2362 3.0739-11.556 3.7327-2.3203 0.65888-5.4844 1.8271-7.0313 2.5961-1.5468 0.76894-7.1367 2.997-12.422 4.9512-9.2682 3.4269-12.99 6.1404-6.5625 4.7844 1.6758-0.35354 5.5781-1.049 8.6718-1.5455zm362.81-2.754c9.5253-1.0666 19.312-2.5041 25.312-3.7178 2.5781-0.52148 7.2187-1.2159 10.312-1.5431 6.4357-0.68067 8.9062-1.6954 8.9062-3.6581 0-1.6439-3.5849-1.7992-8.7062-0.37702-2.4865 0.69053-9.5068 0.68567-23.438-0.0162-16.985-0.85577-20.982-0.79081-27.388 0.44517-12.062 2.3273-31.408 0.0192-48.176-5.7478-6.4311-2.2118-15.175-4.2496-37.614-8.7666-18.737-3.7716-87.592-6.8769-99.367-4.4813l-6.0937 1.2398-0.2834 4.3562c-0.3473 5.3397 1.4778 6.8407 6.4918 5.3387 9.0364-2.707 34.996-1.9544 65.51 1.8993 3.8672 0.48839 12.094 1.5066 18.281 2.2626 6.1875 0.75606 13.148 2.0088 15.469 2.784 2.3203 0.77513 8.2266 1.8734 13.125 2.4407 4.8984 0.56725 12.492 1.6386 16.875 2.3807 4.3828 0.74213 12.188 2.0653 17.344 2.9405 5.1562 0.87513 11.695 1.8862 14.531 2.2468 7.5449 0.95932 30.24 0.94383 38.906-0.0265zm-1244.6-1.65c9.3389-0.90361 8.9129-2.3876-0.9375-3.2657-26.498-2.3623-72.684-2.6921-70.495-0.5034 4.6337 4.6337 42.078 6.6094 71.433 3.7691zm679.41-3.6886c1.3701 0.61269 4.8296 0.57432 10.312-0.11439 4.5379-0.57002 12.166-1.3223 16.952-1.6717 9.5048-0.69403 10.46-1.1497 7.6831-3.6632-1.0191-0.92226-1.8529-2.4684-1.8529-3.436 0-2.6566-2.3893-3.0531-8.2732-1.3728-6.2411 1.7823-21.32 4.8844-27.352 5.6269-18.23 2.2442-27.934 3.6762-29.531 4.3582-1.0312 0.44019-2.5078 0.99401-3.2812 1.2307-5.8988 1.8052 4.7962 1.8784 18.095 0.12386 10.654-1.4056 15.802-1.7284 17.248-1.0816zm279.19 1.5751c18.523-1.7414 19.93-1.9438 21.37-3.0744 0.7828-0.61464 1.7143-2.5205 2.0699-4.2353l0.6465-3.1178-4.5432 0.64029c-12.249 1.7263-33.137 7.8825-33.137 9.7663 0 1.2209 0.8174 1.2221 13.594 0.021zm-195.52-5.1289c9.5875-2.3154 15.815-5.0594 13.349-5.8816-0.65938-0.2198-4.8695 0.46287-9.3558 1.517-4.4863 1.0542-9.784 2.1785-11.773 2.4985-6.6376 1.0682-8.8576 2.2645-6.8876 3.7115 0.92631 0.68038 2.4029 1.0754 3.2812 0.87785 0.87837-0.19757 6.0021-1.423 11.386-2.7232zm257.29 1.3959c3.4909-3.3814-5.7083-4.5836-13.311-1.7396-1.1937 0.44657-4.6492 0.81194-7.679 0.81194-5.0621 0-7.3104 0.80897-5.9708 2.1485 0.8267 0.82668 26.024-0.31435 26.96-1.2208zm-964.47-4.5967c4.7024-1.5975 10.398-3.3056 12.656-3.7958 33.288-7.2249 8.2158-8.8799-34.519-2.2786-5.7905 0.89446-11.893 1.2566-15.469 0.91795-3.2483-0.30758-12.023-0.95846-19.5-1.4464-14.398-0.93966-23.157-1.9338-32.344-3.671-3.0938-0.58501-9.1573-1.7183-13.474-2.5185-4.3172-0.80016-11.278-2.7564-15.469-4.3472-4.1906-1.5908-10.361-3.8496-13.713-5.0194-8.2179-2.8686-14.383-5.6968-19.523-8.9569-2.8223-1.7899-5.5176-2.7151-7.9093-2.7151-26.233 0 27.635 29.317 60.337 32.837 17.144 1.8457 34.788 2.8639 50.677 2.9244 9.1027 0.0347 17.962 0.42318 19.688 0.86335 6.2593 1.5968 19.429 0.30838 28.562-2.7942zm105.18-6.7435c-0.43573-6.073-17.182-10.649-22.236-6.0753-0.97 0.87783-2.9691 1.9185-4.4425 2.3125-5.8159 1.5554-2.1422 3.1398 10.915 4.7074 3.3516 0.40237 7.9922 1.5859 10.312 2.63 5.0709 2.2819 5.835 1.7808 5.4508-3.5746zm1144.2 2.4942c7.4685-4.8936-2.0564-7.3561-14.422-3.7285-9.5659 2.8062-10.768 3.4292-9.7598 5.0596 1.1247 1.8198 21.046 0.72328 24.182-1.331zm-297.65-3.6696c1.4244-1.4245 1.2786-1.5371-1.9916-1.5371-3.3094 0-9.0606 2.1738-9.0606 3.4246 0 1.2045 9.5995-0.43485 11.052-1.8875zm-894.14-7.16c0-0.51563-1.4766-0.9375-3.2812-0.9375-1.8047 0-3.2812 0.42187-3.2812 0.9375 0 0.51562 1.4766 0.9375 3.2812 0.9375 1.8047 0 3.2812-0.42188 3.2812-0.9375zm1202.6-0.52566c7.987-5.5943 8.6838-28.236 1.1669-37.912-3.1571-4.0638-5.6512-8.8077-5.6512-10.748 0-2.464-5.5806-5.2183-9.3515-4.6154-1.885 0.30138-10.353-0.68945-19.711-2.3064-38.577-6.6656-62.531-6.4929-116.72 0.84159-22.471 3.0415-28.594 3.14-28.594 0.45993 0-2.3744 10.046-5.1694 18.75-5.2166 2.3205-0.01261 5.9067-0.39561 7.9692-0.85112s9.1342-1.0849 15.715-1.3987c6.5807-0.31378 15.018-1.2296 18.75-2.0351 4.2981-0.92775 13.658-1.6244 25.535-1.9007 27.31-0.63526 30.179-1.8619 9.5535-4.0848-17.92-1.9313-51.665 0.10015-77.991 4.6951-18.246 3.1847-39.173 5.3724-59.062 6.1745-20.699 0.83466-21.079 0.81165-37.031-2.2447-7.4766-1.4324-14.337-2.4549-15.246-2.272-2.4503 0.49295-0.975 2.0649 1.9417 2.0691 1.3876 0.002 7.9047 1.0577 14.482 2.346 12.913 2.5292 12.66 2.4961 32.103 4.1931 7.2187 0.63004 14.178 1.5634 15.466 2.0742l2.3408 0.92869-2.0371 1.6496c-3.681 2.9807-18.919 3.1492-34.988 0.38703-32.749-5.6293-33.323-5.6331-34.237-0.22592-1.0186 6.0298 0.6736 7.1482 8.1365 5.3769 4.2341-1.0049 7.1779-1.1628 10.592-0.56798 2.6002 0.45307 11.056 0.98655 18.79 1.1855 7.7343 0.19895 19.969 0.85017 27.188 1.4472 15.07 1.2463 12.86 1.2403 34.219 0.09319 22.825-1.2258 29.917-1.9549 34.003-3.4958 1.9441-0.73304 5.6467-1.3328 8.228-1.3328 2.5814 0 7.9676-0.84871 11.969-1.886 8.8128-2.2844 33.25-3.0474 38.612-1.2057 1.8047 0.61988 11.719 1.8 22.031 2.6224 10.312 0.82243 21.07 2.0824 23.906 2.8 4.6431 1.1748 13.521 2.914 25.312 4.9587 3.3676 0.58396 4.2791 1.1515 4.5181 2.8133 0.6106 4.2457-9.6379 4.3986-22.664 0.33819-3.5348-1.1019-7.7536-2.0039-9.375-2.0045-3.7188-0.00093-15.203-2.2421-18.787-3.6655-1.6141-0.64104-10.924-1.2473-22.969-1.4958-11.14-0.2298-22.399-0.6786-25.019-0.99732-3.3671-0.40953-6.942-0.01303-12.188 1.3517-4.0824 1.0622-11.009 2.3611-15.391 2.8864-4.3828 0.52536-12.071 1.5933-17.085 2.3732-15.827 2.4619-28.356 2.9262-57.369 2.1258-40.184-1.1084-65.702 0.63634-65.702 4.4922 0 2.1492 38.89 2.5903 57.188 0.64874 9.2938-0.9862 29.294 0.2681 33.563 2.1049 1.157 0.49778 2.3487 0.10594 3.7867-1.245 1.286-1.2081 3.1732-1.9105 4.8742-1.8142 3.26 0.18456 13.454-0.89104 20.391-2.1514 12.012-2.1826 46.168-2.2228 49.67-0.0584 1.7872 1.1045 4.1749 2.0082 5.3062 2.0082 1.1312 0 4.4503 1.1323 7.3758 2.5163l5.319 2.5163 27.67 0.11788c20.877 0.089 28.41-0.1836 30.686-1.1101 4.5166-1.8384 11.463-1.5382 15.053 0.65057 1.6883 1.0293 4.3574 1.8715 5.9315 1.8715 9.7514 0 10.985 11.754 1.5233 14.515-5.4696 1.596-15.398 5.5142-16.327 6.4438-0.3319 0.33188 1.2599 0.60988 3.5372 0.61777 4.8155 0.0167 5.9886 0.61285 6.89 3.5013 0.827 2.6503 9.9658 3.0892 13.454 0.64622zm-1222.6-2.35c-4.6914-3.1074-15.996-5.5328-25.976-5.5732-5.4753-0.0221-18.639-2.0987-22.52-3.5526-1.2782-0.47882-5.2772-1.3653-8.8865-1.97-6.7434-1.1298-15.391-3.5754-16.644-4.7073-1.6698-1.5082-3.6034-11.62-2.3703-12.396 3.0147-1.8953 8.9166 2.5539 9.3541 7.0518 0.46536 4.7837 20.85 6.8107 78.098 7.7655 34.36 0.57306 37.42 0.26884 36.862-3.664-0.40818-2.8739-13.18-3.6055-18.789-1.0763-3.2562 1.4683-3.9687 1.4762-9.5247 0.10512-3.3029-0.81506-6.8093-1.2716-7.7921-1.0146-0.98279 0.257-3.8984-0.36499-6.4791-1.3822-3.1303-1.2339-9.4384-2.2549-18.951-3.0674-15.562-1.3292-18.923-3.1047-6.1853-3.2669 4.082-0.0519 8.66-0.59849 10.173-1.2145 1.5132-0.61602 9.6873-1.5362 18.165-2.045 8.4774-0.5087 16.31-1.4115 17.405-2.0063 1.0954-0.59477 9.1635-1.443 17.929-1.885 8.7656-0.44201 17.625-0.89108 19.688-0.99793l3.75-0.19429 0.76881-11.106c0.42284-6.1084 0.54796-11.327 0.27803-11.597-1.4666-1.4666-5.2015 0.9183-6.2064 3.9631-0.59755 1.8106-2.4465 4.3294-4.1088 5.5973-5.6227 4.2887-9.7067 5.7297-33.199 11.715-3.7634 0.95877-7.4367 2.2362-8.1628 2.8388-1.384 1.1486-48.406 1.5429-50.221 0.42112-0.49541-0.30619-6.3437-0.71272-12.996-0.90342-6.6524-0.19069-13.711-0.77616-15.687-1.301-1.9752-0.52488-7.3881-1.3743-12.029-1.8875-12.28-1.356-39.77-5.497-43.59-6.564-11.028-3.082-38.906-4.673-55.781-3.184-14.655 1.294-18.336 1.08-20.207-1.175-1.9509-2.3507-3.1504-1.4934-6.4357 4.5998-4.2235 7.8334-3.7133 9.1531 3.4135 8.8306 6.2756-0.28406 8.6702 2.9609 3.6059 4.8864-3.0215 1.1488-3.0504 2.3736-0.10156 4.3057 1.269 0.83145 2.5764 2.36 2.9055 3.3967 0.32905 1.0367 2.3494 2.6255 4.4897 3.5306 18.324 7.7491 29.972 11.638 39.889 13.318 23.292 3.9464 30.186 3.0822 17.674-2.2155-7.549-3.1965-8.2698-3.3879-18.524-4.9198-5.3421-0.79803-10.401-2.2111-13.299-3.7147-2.5726-1.3347-6.0095-2.434-7.6377-2.4428-4.278-0.0233-19.327-3.3194-20.497-4.4894-4.0689-4.0689 5.3504-5.1737 17.537-2.057 4.0321 1.0312 8.6348 1.8813 10.228 1.8891 1.5933 0.007 6.2719 1.0624 10.397 2.3436 4.125 1.2812 9.1093 2.3296 11.076 2.3297 1.9669 0.00007 5.5528 0.81395 7.9688 1.8086 2.4159 0.99467 7.3457 2.2724 10.955 2.8394 3.6094 0.56702 10.992 2.2316 16.406 3.699 9.5094 2.5774 16.603 3.937 37.5 7.1878 5.4141 0.84223 11.744 1.8684 14.067 2.2804 2.3227 0.41201 13.081 1.2592 23.906 1.8826 10.826 0.62342 19.859 1.298 20.074 1.4991 0.21484 0.20109 3.1348 0.36562 6.4888 0.36562h6.0982zm-107.71-28.55c-0.26932-0.26933-5.4794-0.69967-11.578-0.95631-15.055-0.63356-29.339-4.4382-22.803-6.0738 11.935-2.9867 51.587 2.6832 45.808 6.5501-1.449 0.96955-10.555 1.352-11.427 0.48zm-70.838-1.126c-5.6444-0.70046-2.6381-5.9126 3.9844-6.9076 1.7793-0.26735 7.4581 0.56019 11.016 1.6052 2.7993 0.8223 1.8127 2.8956-2.1283 4.4725-3.6367 1.4551-6.3984 1.6332-12.872 0.82985zm1308.9 30.21c0-0.51563-1.8985-1.5146-4.2188-2.22-2.3203-0.70536-8.2606-2.7324-13.201-4.5045-4.9399-1.7721-11.479-3.4673-14.531-3.7671-3.0522-0.29979-6.2817-0.92112-7.1767-1.3807-0.8949-0.4596-3.4262-1.2248-5.625-1.7004s-8.1716-1.928-13.273-3.2276c-5.1013-1.2996-9.7072-2.0958-10.235-1.7694-1.6915 1.0454 8.0664 4.6494 17.212 6.3569 4.8738 0.91 10.76 2.262 13.08 3.0045 2.3203 0.74247 7.8047 2.3688 12.188 3.614 4.3828 1.2452 11.133 3.2956 15 4.5563 7.2077 2.3498 10.781 2.6938 10.781 1.0379zm-66.874-5.3742c-1.0199-1.0198-1.7267-1.1875-20.982-4.978-12.004-2.363-15.737-2.521-15.737-0.66612 0 1.1368 12.55 4.1487 14.373 3.4493 0.8684-0.33323 2.6154 0.0733 3.8824 0.90346 1.3862 0.90825 4.4634 1.5466 7.7271 1.6028 2.9831 0.0514 6.4783 0.40682 7.7674 0.78982 2.7547 0.81846 4.3118 0.24104 2.9696-1.1012zm-87.384-5.4862c6.4606-1.3856 5.066-2.7334-2.8281-2.7334-7.413 0-8.3189 1.5903-2.1002 3.6866 0.1035 0.0349 2.3213-0.394 4.9283-0.95312zm190.35-1.7397c1.3951-0.48905-13.369-3.7114-17.344-3.7854-2.5782-0.048-5.7422-0.69018-7.0313-1.4271-1.2891-0.73689-3.4881-1.3548-4.8867-1.373-1.3987-0.0183-4.7737-0.84963-7.5-1.8475-2.7264-0.99784-7.4883-2.1002-10.582-2.4497-3.0938-0.34949-7.7861-1.1835-10.427-1.8533-2.6412-0.66983-7.5431-1.2389-10.893-1.2646-3.35-0.0257-7.1271-0.51889-8.3937-1.096-1.7629-0.80324-3.385-0.73364-6.9193 0.2969-5.8532 1.7067-6.0206 3.6585-0.3978 4.6371 8.2217 1.4309 19.305 3.6533 25.762 5.1655 18.856 4.4163 52.168 7.2563 58.613 4.997zm-1099.8-10.61c0.33745-4.0682-0.69001-4.4049-5.8842-1.9279-4.1019 1.9561-4.1532 2.8297-0.26619 4.5342 4.5139 1.9794 5.8157 1.4278 6.1504-2.6063zm-267.94-2.5897c1.1427-2.1352 0.52732-3.7306-1.439-3.7306-1.5741 0-3.5833 3.4042-2.7782 4.7069 0.94962 1.5365 3.1442 1.0285 4.2171-0.97626zm178.47-13.102c14.864 0 33.819-1.504 42.3-3.3565 20.61-4.5017 32.344-8.4476 32.344-10.877 0-0.7942-23.029-0.23415-25.875 0.62926-3.5501 1.0771-45.438-2.9602-63.593-6.1293-5.3753-0.9383-5.6387-0.8883-7.8428 1.4888l-2.2808 2.4597-14.657-0.59232c-8.0614-0.32577-20.142-0.99076-26.845-1.4778-6.7031-0.48699-21.891-1.3226-33.75-1.8569-39.582-1.784-46.397-2.618-46.397-5.682 0-2.5412 3.4594-3.0811 12.41-1.9369 4.2606 0.54468 16.606 1.2379 27.434 1.5405 10.828 0.30261 25.594 0.94807 32.812 1.4343 27.889 1.8787 37.55 2.1494 36.499 1.0229-1.1328-1.2151-25.612-7.5046-38.374-9.8597-4.64-0.857-11.6-2.167-15.47-2.913-10.551-2.035-30.663-1.876-45.49 0.359-12.323 1.858-19.975 5.512-28.319 13.525-8.4362 8.1009-8.1929 8.4574 5.1373 7.5245 20.067-1.4043 40.774-0.80668 52.266 1.5084 5.6719 1.1426 13.266 2.4415 16.875 2.8864 3.6094 0.44487 10.781 1.491 15.938 2.3247 5.1562 0.8337 12.539 1.8833 16.406 2.3324 10.206 1.1853 37.494 5.4974 40.781 6.4446 1.5676 0.45163 3.5114 0.45423 4.3915 0.0056 0.86845-0.44219 6.8572-0.80418 13.308-0.80418z"/>
</svg>
